# xmcd CD database generated by RipIT
#
# Track frame offsets:
# 150
# 25232
# 37294
# 54305
# 77233
# 98844
# 111780
# 128208
# 146677
# 166240
# 185760
#
# Disc length: 2698 seconds
#
# Revision: 1
# Processed by: cddbd v1.5.2PL0 Copyright (c) Steve Scherf et al.
# Submitted via: RipIT 4.0.0-beta20140508 www.suwald.com/ripit/ripit.html on 2018-04-06 at 20:36
#
DISCID=980a880b
DTITLE=Mary Gauthier - Rifles and Rosary Beads
DYEAR=2018
DGENRE=Folk
TTITLE0=Soldiering On
TTITLE1=Got Your Six
TTITLE2=The War After The War
TTITLE3=Still On The Ride
TTITLE4=Bullet Holes In The Sky
TTITLE5=Brothers
TTITLE6=Rifles And Rosary Beads
TTITLE7=Morphine 1-2
TTITLE8=It's Her Love
TTITLE9=Iraq
TTITLE10=Stronger Together
EXTD=
EXTT0=
EXTT1=
EXTT2=
EXTT3=
EXTT4=
EXTT5=
EXTT6=
EXTT7=
EXTT8=
EXTT9=
EXTT10=
PLAYORDER=
